<svg width="79" height="64" viewBox="0 0 79 64" fill="none" xmlns="http://www.w3.org/2000/svg">
<path fill-rule="evenodd" clip-rule="evenodd" d="M29.5002 3.83333C24.8979 3.83333 21.1669 7.56429 21.1669 12.1667C21.1669 16.769 24.8979 20.5 29.5002 20.5C34.1026 20.5 37.8336 16.769 37.8336 12.1667C37.8336 7.56429 34.1026 3.83333 29.5002 3.83333ZM17.8336 12.1667C17.8336 5.72334 23.0569 0.5 29.5002 0.5C35.9436 0.5 41.1669 5.72334 41.1669 12.1667C41.1669 18.61 35.9436 23.8333 29.5002 23.8333C23.0569 23.8333 17.8336 18.61 17.8336 12.1667ZM54.8359 26.882C54.2278 25.9361 52.8769 25.8515 52.1555 26.714L35.0644 47.1488C34.7668 47.5046 34.3343 47.7203 33.871 47.744C33.4077 47.7677 32.9555 47.5972 32.6231 47.2735L21.2113 36.1595C20.4643 35.432 19.2402 35.5614 18.6617 36.429L4.34187 57.9088C3.60348 59.0164 4.39746 60.5 5.72862 60.5H73.3947C74.7133 60.5 75.5097 59.0413 74.7966 57.9321L54.8359 26.882ZM49.5986 24.5755C51.7627 21.9879 55.8157 22.2419 57.6398 25.0795L77.6006 56.1295C79.7397 59.4571 77.3505 63.8333 73.3947 63.8333H5.72862C1.73514 63.8333 -0.646812 59.3826 1.56837 56.0598L15.8882 34.58C17.6235 31.9771 21.2959 31.589 23.537 33.7716L33.6609 43.6312L49.5986 24.5755Z" fill="white"/>
</svg>
