<svg xmlns="http://www.w3.org/2000/svg" viewBox="0 0 312 216"><defs><style>.cls-1{fill:#b3b3b3;}.cls-2{fill:#a6120d;}.cls-3{fill:#dd1b16;}.cls-4{fill:#f2f2f2;}</style></defs><title>iconos</title><g id="angular"><polygon class="cls-1" points="158.22 43.72 96.11 66.04 106.28 146.2 158.22 174.76 209.96 146.2 220.33 65.32 158.22 43.72"/><polygon class="cls-2" points="158.22 167.8 204.64 142.12 213.28 70.12 158.22 50.68 158.22 167.8"/><polygon class="cls-3" points="158.22 167.8 111.8 142.12 103.16 70.12 158.22 50.68 158.22 167.8"/><polygon class="cls-4" points="158.22 55.48 119.72 139.48 134.36 139.48 141.8 120.28 158.22 120.28 158.22 109.24 147.32 109.24 158.22 82.6 158.22 55.48"/><polygon class="cls-1" points="158.22 55.48 196.72 139.48 182.09 139.48 174.65 120.28 158.22 120.28 158.22 109.24 169.13 109.24 158.22 82.6 158.22 55.48"/></g></svg>