<svg xmlns="http://www.w3.org/2000/svg" viewBox="0 0 312 216"><defs><style>.cls-1{fill:#003769;}.cls-2{fill:#659ad2;}.cls-3{fill:#fff;}.cls-4{fill:none;}.cls-5{fill:#00599c;}.cls-6{fill:#fcfbfa;}</style></defs><title>iconos</title><g id="c_2" data-name="c++"><path class="cls-1" d="M93.46,79v56.76A8.35,8.35,0,0,0,97.68,143l49.85,28.47a8.41,8.41,0,0,0,8.3,0L205.69,143a8.35,8.35,0,0,0,4.22-7.26V79a8.36,8.36,0,0,0-4.22-7.27l-49.9-28.42a8.29,8.29,0,0,0-8.26,0L97.68,71.75A8.36,8.36,0,0,0,93.46,79Z"/><path class="cls-2" d="M208.72,74.72,96,141.77a7.83,7.83,0,0,1-2.53-5.63V79a8.34,8.34,0,0,1,4.11-7.22l48.92-28.55a9.11,9.11,0,0,1,8.9-.2c12.15,6.86,48.2,27.5,48.2,27.5C205.21,71.51,207.31,72.23,208.72,74.72Z"/><path class="cls-3" d="M168.85,118,185,127.28a39.11,39.11,0,1,1,.08-38.51l-16,9.55A20.53,20.53,0,0,0,151.48,88a20,20,0,1,0,17.37,30Z"/><line class="cls-4" x1="96.39" y1="140.8" x2="95.1" y2="141.56"/><path class="cls-5" d="M168.85,118l-17.18-9.34,57.05-33.93s1.33,1.5,1.33,6.06c0,4.22-.19,50-.6,56.73,0,.41-.68,3-1,2.79l-23.41-13Z"/><polygon class="cls-6" points="185.95 105.5 185.95 109.82 181.6 109.82 181.6 114.26 177.28 114.26 177.28 109.82 172.93 109.82 172.93 105.5 177.28 105.5 177.28 101.24 181.6 101.24 181.6 105.5 185.95 105.5"/><polygon class="cls-6" points="202.15 105.41 202.15 109.73 197.8 109.73 197.8 114.17 193.48 114.17 193.48 109.73 189.13 109.73 189.13 105.41 193.48 105.41 193.48 101.15 197.8 101.15 197.8 105.41 202.15 105.41"/></g></svg>