<svg xmlns="http://www.w3.org/2000/svg" viewBox="0 0 312 216"><defs><style>.cls-1{fill:#dd1b16;}.cls-2{fill:#a6120d;}.cls-3{fill:#b3b3b3;}.cls-4{fill:#f2f2f2;}</style></defs><title>iconos</title><g id="angularAvanzado"><polygon class="cls-1" points="156 32.63 156 180.75 97.29 148.47 85.79 57.86 156 32.63"/><polygon class="cls-2" points="226.21 57.04 214.48 148.47 156 180.75 156 32.63 226.21 57.04"/><polygon class="cls-3" points="156 42.48 93.89 64.8 104.06 144.96 156 173.52 207.74 144.96 218.11 64.08 156 42.48"/><polygon class="cls-2" points="156 166.56 202.42 140.88 211.06 68.88 156 49.44 156 166.56"/><polygon class="cls-1" points="156 166.56 109.58 140.88 100.94 68.88 156 49.44 156 166.56"/><polygon class="cls-4" points="156 54.24 117.5 138.24 132.14 138.24 139.58 119.04 156 119.04 156 108 145.1 108 156 81.36 156 54.24"/><polygon class="cls-3" points="156 54.24 194.5 138.24 179.87 138.24 172.43 119.04 156 119.04 156 108 166.91 108 156 81.36 156 54.24"/><rect class="cls-1" x="244.84" y="89.96" width="3.72" height="24.24"/><rect class="cls-1" x="245.02" y="89.12" width="3.78" height="24.66" transform="translate(145.46 348.36) rotate(-90)"/></g></svg>