<svg xmlns="http://www.w3.org/2000/svg" viewBox="0 0 312 216"><defs><style>.cls-1{fill:#006bc0;}.cls-2{fill:#0096dc;}.cls-3,.cls-6{fill:#fff;}.cls-4{fill:#e64c18;}.cls-5{fill:#f36518;}.cls-6{stroke:#fff;stroke-miterlimit:10;}</style></defs><title>iconos</title><g id="html_css" data-name="html+css"><path class="cls-1" d="M282,50.71H162.48L170.91,161s49.79,45.2,102.64,0Z"/><polygon class="cls-2" points="222.23 60.67 222.23 176.34 261.3 164.85 270.49 60.67 222.23 60.67"/><polygon class="cls-3" points="184.69 75.99 186.23 91.31 216.1 91.31 186.99 105.87 188.53 121.95 239.85 121.95 238.32 141.1 222.23 145.7 205.38 140.34 204.61 128.08 189.29 128.08 190.82 151.83 222.23 161.02 253.64 151.83 257.47 105.87 228.36 106.63 259 90.55 259.76 75.23 184.69 75.99"/><path class="cls-4" d="M52,160.71c55,41,99,0,99,0l9-110-59,3-59-3Z"/><polygon class="cls-5" points="100.04 61.71 101.04 174.71 140.04 164.71 149.04 61.71 100.04 61.71"/><path class="cls-6" d="M139,75.71s-66,2-74,0l3,46h51l-1,20-17,4-16-5-1-12H68l2,23,31,10,31-9,4-46H82l-1-15h57Z"/></g></svg>