<svg id="Layer_1" data-name="Layer 1" xmlns="http://www.w3.org/2000/svg" viewBox="0 0 39.2 39.95"><defs><style>.cls-1{fill:#256d85;}</style></defs><title>iconCart</title><path class="cls-1" d="M14.35,44A3.6,3.6,0,1,1,16.9,37.8,3.6,3.6,0,0,1,14.35,44Zm20,0A3.59,3.59,0,1,1,36.9,42.9,3.47,3.47,0,0,1,34.35,44ZM11.75,11l5.5,11.4h14.4L37.9,11Zm-1.5-3H39.7a1.9,1.9,0,0,1,1.75,1,2,2,0,0,1,0,2.1L34.7,23.25a4.51,4.51,0,0,1-1.42,1.52,3.42,3.42,0,0,1-1.93.58H16.2l-2.8,5.2H38v3H13.85a3.35,3.35,0,0,1-3-1.4,2.88,2.88,0,0,1,0-3.15l3.2-5.9L6.45,7H2.55V4H8.4Zm7,14.4h0Z" transform="translate(-2.55 -4)"/></svg>