<svg xmlns="http://www.w3.org/2000/svg" viewBox="0 0 312 216"><defs><style>.cls-1{fill:#d4b830;}.cls-2{fill:#fdd83c;}</style></defs><title>iconos</title><g id="js"><path class="cls-1" d="M91.5,48.5s87,1,113,0l-10,115-47,14-46-14Z"/><polygon class="cls-2" points="147.5 57.5 147.5 167.5 185.5 156.5 194.5 57.5 147.5 57.5"/><polygon points="112.5 70.5 113.5 84.5 130.5 84.5 130.5 133.5 121.5 132.5 120.5 120.5 106.5 120.5 108.5 142.5 144.5 149.5 144.5 70.5 112.5 70.5"/><polygon points="152 70 152 114 171 114 170 132 152 136 152 150 183 143 187 99 167 99 167 85 188 85 189 70 152 70"/></g></svg>