<svg id="reactAvanzado" xmlns="http://www.w3.org/2000/svg" viewBox="0 0 312 216"><defs><style>.cls-1,.cls-3{fill:none;stroke:#61dafb;stroke-miterlimit:10;}.cls-2{fill:#61dafb;}.cls-3{stroke-width:8px;}</style></defs><title>iconos</title><path class="cls-1" d="M150.35,16.44,80.24,56.92A11.28,11.28,0,0,0,74.6,66.7v81a11.29,11.29,0,0,0,5.64,9.78l70.11,40.48a11.29,11.29,0,0,0,11.3,0l70.11-40.48a11.29,11.29,0,0,0,5.64-9.78V66.7a11.28,11.28,0,0,0-5.64-9.78L161.65,16.44A11.29,11.29,0,0,0,150.35,16.44Z"/><circle class="cls-2" cx="156" cy="108.02" r="12.96"/><ellipse class="cls-3" cx="156.64" cy="108.23" rx="27.47" ry="69.78" transform="translate(-33.41 96.87) rotate(-31.22)"/><ellipse class="cls-3" cx="156.37" cy="108" rx="70.08" ry="26.76" transform="translate(-15.35 189.42) rotate(-60)"/><ellipse class="cls-3" cx="156" cy="108.62" rx="70.08" ry="26.76"/><rect class="cls-2" x="254.7" y="89.96" width="3.72" height="24.24"/><rect class="cls-2" x="254.88" y="89.12" width="3.78" height="24.66" transform="translate(155.32 358.22) rotate(-90)"/></svg>