<svg xmlns="http://www.w3.org/2000/svg" viewBox="0 0 312 216"><defs><style>.cls-1{fill:#47b5ff;opacity:0.8;}.cls-2{fill:#256d85;}</style></defs><title>iconoWeb</title><g id="icono"><path class="cls-1" d="M78.77,71.64H220.86a3,3,0,0,1,3,3v12a3,3,0,0,1-3,3h-138a7.11,7.11,0,0,1-7.11-7.11V74.64A3,3,0,0,1,78.77,71.64Z" transform="translate(299.63 161.27) rotate(-180)"/><rect class="cls-2" x="102.95" y="98.68" width="125.13" height="17.98" rx="2.33" transform="translate(331.03 215.34) rotate(180)"/><rect class="cls-1" x="134.87" y="125.71" width="86.99" height="17.98" rx="2.33" transform="translate(356.74 269.41) rotate(180)"/><path class="cls-2" d="M182.76,151.56h33.53a2.33,2.33,0,0,1,2.33,2.33v13.32a2.33,2.33,0,0,1-2.33,2.33h-41.9a2.33,2.33,0,0,1-2.33-2.33v-5a10.7,10.7,0,0,1,10.7-10.7Z" transform="translate(390.69 321.1) rotate(-180)"/><path class="cls-2" d="M226.38,108.86a153.93,153.93,0,0,0-2.95-15.77A127,127,0,0,0,218.88,78c-.91-2.44-1.94-4.83-3-7.2s-2.13-4.69-3.32-6.95a96,96,0,0,0-8-12.88,94.43,94.43,0,0,0-9.69-11.21,77.72,77.72,0,0,0-11.18-9.07A60.41,60.41,0,0,0,158.2,21l-1.66-.21-1.84-.17-.49-.05-.38,0-.77,0c-.52,0-1,0-1.58-.05a56.88,56.88,0,0,0-6.62.33,57.86,57.86,0,0,0-24.75,8.67,67.18,67.18,0,0,0-10.64,8.17A84.23,84.23,0,0,0,92.93,59.51a105.66,105.66,0,0,0-5.71,12.8A101.92,101.92,0,0,0,83.35,85.9a109.88,109.88,0,0,0-2.45,28.35,107.18,107.18,0,0,0,4.64,28.05,97.19,97.19,0,0,0,11.89,25.53,79.84,79.84,0,0,0,8.66,10.93,70,70,0,0,0,10.32,9.17,67.58,67.58,0,0,0,11.85,6.85,60.59,60.59,0,0,0,13.09,4.06,58.36,58.36,0,0,0,6.9.9c1.18.07,2.32.12,3.43.13q.82,0,1.62,0l1.9-.09a60.6,60.6,0,0,0,14.11-2.29A66.74,66.74,0,0,0,182.94,192a86.87,86.87,0,0,0,12.62-8.38c2-1.6,3.95-3.3,5.84-5.08s3.68-3.7,5.44-5.65,3.48-4,5.12-6.08c.8-1.06,1.62-2.12,2.38-3.22s1.56-2.19,2.34-3.29l.07-.1a.8.8,0,0,1,1.11-.2.82.82,0,0,1,.26,1,98,98,0,0,1-18.62,26.59,78.87,78.87,0,0,1-27.09,18,68.14,68.14,0,0,1-15.89,4,64,64,0,0,1-16.42.2,71.37,71.37,0,0,1-30.67-11.08,87.84,87.84,0,0,1-23.54-22.58A107.26,107.26,0,0,1,71.1,147.08a120.4,120.4,0,0,1-6-32.06,123.33,123.33,0,0,1,2.6-32.52A113.6,113.6,0,0,1,79.18,51.92,96.11,96.11,0,0,1,99.5,26.36a76.59,76.59,0,0,1,28.44-16.07,67.65,67.65,0,0,1,32.59-1.66,70.59,70.59,0,0,1,29.68,13.52,88,88,0,0,1,21.55,24.43,111,111,0,0,1,12.37,30.06A128.78,128.78,0,0,1,228,108.86a.79.79,0,0,1-.8.79.81.81,0,0,1-.79-.68Z"/></g></svg>