<svg id="Layer_1" data-name="Layer 1" xmlns="http://www.w3.org/2000/svg" viewBox="0 0 28 36"><defs><style>.cls-1{fill:#256d85;}</style></defs><title>icon_ruta</title><path class="cls-1" d="M26.4,42V33.5A8.85,8.85,0,0,0,17.85,27a16.56,16.56,0,0,0-2.25.15,11.42,11.42,0,0,0-1.9.4L18.2,32l-2.1,2.1L8,26l8.1-8.1L18.2,20l-4.5,4.5a16.55,16.55,0,0,1,2.05-.4,14.34,14.34,0,0,1,1.9-.15A11.43,11.43,0,0,1,22.83,25a12.28,12.28,0,0,1,3.57,2.7v-16l-4.5,4.5-2.1-2.1L27.9,6,36,14.1l-2.1,2.1-4.5-4.5V42Z" transform="translate(-8 -6)"/></svg>