<svg xmlns="http://www.w3.org/2000/svg" viewBox="0 0 312 216"><defs><style>.cls-1{fill:none;stroke-linecap:round;stroke-width:0.5px;opacity:0.6;}.cls-1,.cls-3{stroke:#a4c439;}.cls-1,.cls-3,.cls-4{stroke-miterlimit:10;}.cls-2,.cls-3{fill:#a4c439;}.cls-4{fill:#fff;stroke:#fff;}</style></defs><title>iconos</title><g id="andorid"><line class="cls-1" x1="118.14" y1="63.13" x2="118.57" y2="161.24"/><line class="cls-1" x1="135.43" y1="53.01" x2="135.43" y2="170.6"/><line class="cls-1" x1="152.01" y1="48.36" x2="152.01" y2="175.67"/><line class="cls-1" x1="170.01" y1="48.34" x2="170.01" y2="175.67"/><line class="cls-1" x1="186.57" y1="52.86" x2="186.57" y2="170.6"/><line class="cls-1" x1="203.86" y1="64.06" x2="202.75" y2="160.64"/><line class="cls-1" x1="220.42" y1="87.32" x2="220.42" y2="136.82"/><line class="cls-1" x1="101.58" y1="87.32" x2="101.58" y2="137.24"/><line class="cls-1" x1="111.64" y1="69.7" x2="209.24" y2="69.7"/><line class="cls-1" x1="135.43" y1="53.01" x2="186.65" y2="53.1"/><line class="cls-1" x1="220.42" y1="87.32" x2="101.58" y2="87.32"/><line class="cls-1" x1="97.1" y1="103.89" x2="224.6" y2="103.89"/><line class="cls-1" x1="97.1" y1="120.12" x2="224.72" y2="120.11"/><line class="cls-1" x1="220.12" y1="137.24" x2="101.58" y2="137.24"/><line class="cls-1" x1="209.48" y1="154.2" x2="111.57" y2="154.2"/><line class="cls-1" x1="135.43" y1="170.6" x2="186.95" y2="170.6"/><path class="cls-2" d="M161,48a64,64,0,1,1-64,64,64.07,64.07,0,0,1,64-64m0-1a65,65,0,1,0,65,65,65,65,0,0,0-65-65Z"/><path class="cls-3" d="M198,127.5a37.5,37.5,0,0,0-75,0Z"/><circle class="cls-4" cx="146" cy="113" r="3.5"/><circle class="cls-4" cx="176" cy="113" r="3.5"/><path class="cls-3" d="M138.44,96.77l-7.06-7.15a3,3,0,0,1,4.24-4.24l8,8.15Z"/><path class="cls-3" d="M183.19,96.77l7.06-7.15A3,3,0,0,0,186,85.38l-8,8.15Z"/></g></svg>