<svg xmlns="http://www.w3.org/2000/svg" viewBox="0 0 312 216"><defs><style>.cls-1,.cls-5{fill:#f2f2f2;}.cls-2{fill:#e37f65;}.cls-3{fill:#1c1c1c;}.cls-3,.cls-4{stroke:#1c1c1c;}.cls-10,.cls-14,.cls-15,.cls-3,.cls-4,.cls-5{stroke-linecap:round;stroke-linejoin:round;stroke-width:0.5px;}.cls-15,.cls-4{fill:none;}.cls-5{stroke:#f2f2f2;}.cls-6{fill:#85c2bd;}.cls-7{fill:#154561;}.cls-8{fill:#a2ddf5;}.cls-9{fill:#de6b4e;}.cls-10{fill:#fcfcfc;stroke:#fcfcfc;}.cls-11,.cls-13{font-size:5.29px;font-family:MyriadPro-Regular, Myriad Pro;}.cls-12{letter-spacing:-0.08em;}.cls-13{fill:#fcfafa;}.cls-14{fill:#4c3815;stroke:#4c3815;}.cls-15{stroke:#000;}.cls-16{font-size:9.29px;font-family:NewsGothicBT-Roman, NewsGoth BT;}.cls-17{letter-spacing:-0.04em;}</style></defs><title>iconos</title><g id="productDesign"><path class="cls-1" d="M153.45,199.75a10.79,10.79,0,0,1-5.4-1.45L77.94,157.83a10.83,10.83,0,0,1-5.39-9.35v-81a10.8,10.8,0,0,1,5.39-9.34L148.05,17.7a10.76,10.76,0,0,1,10.79,0L229,58.18a10.81,10.81,0,0,1,5.4,9.34v81a10.84,10.84,0,0,1-5.4,9.35L158.84,198.3A10.73,10.73,0,0,1,153.45,199.75Z"/><path class="cls-1" d="M153.45,16.75a10.31,10.31,0,0,1,5.14,1.38L228.7,58.61a10.31,10.31,0,0,1,5.15,8.91v81a10.31,10.31,0,0,1-5.15,8.91l-70.11,40.48a10.28,10.28,0,0,1-10.29,0L78.19,157.39A10.33,10.33,0,0,1,73,148.48v-81a10.33,10.33,0,0,1,5.15-8.91L148.3,18.13a10.32,10.32,0,0,1,5.15-1.38m0-1a11.39,11.39,0,0,0-5.65,1.51L77.69,57.74A11.31,11.31,0,0,0,72,67.52v81a11.31,11.31,0,0,0,5.65,9.78l70.11,40.48a11.31,11.31,0,0,0,11.29,0l70.11-40.48a11.29,11.29,0,0,0,5.65-9.78v-81a11.29,11.29,0,0,0-5.65-9.78L159.09,17.26a11.33,11.33,0,0,0-5.64-1.51Z"/><path class="cls-2" d="M151.34,97.18v11.65c-.34,0-.67,0-1,0a22.85,22.85,0,0,1,0-45.7c.34,0,.67,0,1,0v5"/><path class="cls-3" d="M134.08,46.32a2.09,2.09,0,0,0,1.48,3.58h15.78v4.44h-29a3,3,0,0,0-3,3v90.54a3,3,0,0,0,3,3h29v2.44a4.81,4.81,0,0,0-1-.1,5.1,5.1,0,1,0,0,10.19,4.81,4.81,0,0,0,1-.1V167h-29a8.58,8.58,0,0,1-8.55-8.55V49.93a8.58,8.58,0,0,1,8.55-8.55h29V45.7H135.56A2.09,2.09,0,0,0,134.08,46.32Z"/><path class="cls-4" d="M151.34,45.7v4.2H135.56a2.1,2.1,0,0,1,0-4.2Z"/><polygon class="cls-5" points="151.21 96.87 147.48 93.49 147.48 89.51 151.21 89.51 151.21 96.87"/><path class="cls-6" d="M145.86,94.05s3.65,3.76,4.19,5.7,0,8.5,0,8.5v.61a25,25,0,0,1-6.68-1.08,19.07,19.07,0,0,1-5.79-2.8v-.51c.9-8.19,9.64-11,9.64-11"/><path class="cls-7" d="M141.21,99.57a4.26,4.26,0,0,1,1.56,1.51,7.82,7.82,0,0,1,.88,2,7,7,0,0,1,.39,2.16,5.78,5.78,0,0,1-.47,2.15h-.1a6.06,6.06,0,0,1-.26-1.06c-.07-.34-.13-.68-.17-1-.12-.67-.06-1.36-.17-2a7.41,7.41,0,0,0-.54-2,4,4,0,0,0-1.17-1.66Z"/><path class="cls-8" d="M127.48,86a22.85,22.85,0,0,0,22.85,22.85c.34,0,.67,0,1,0V115H126.56v7h24.78v2.88H126.56v6.48h24.78v3.3h-9.81a3.75,3.75,0,0,0,0,7.5h9.81v8.64h-29a3,3,0,0,1-3-3V57.31a3,3,0,0,1,3-3h29v8.85c-.34,0-.67,0-1,0A22.85,22.85,0,0,0,127.48,86Z"/><path class="cls-9" d="M151.34,134.68v7.5h-9.81a3.75,3.75,0,0,1,0-7.5Z"/><rect class="cls-10" x="126.56" y="124.9" width="24.78" height="6.48"/><rect class="cls-10" x="126.56" y="115" width="24.78" height="7.02"/><path class="cls-4" d="M151.34,153.26v10a4.81,4.81,0,0,1-1,.1,5.1,5.1,0,1,1,0-10.19A4.81,4.81,0,0,1,151.34,153.26Z"/><text class="cls-11" transform="translate(132.02 120.38)">USER NA</text><text class="cls-11" transform="translate(135.35 129.63)"><tspan class="cls-12">P</tspan><tspan x="2.37" y="0">ASSW</tspan></text><text class="cls-13" transform="translate(140.29 139.95)">SIGN</text><path class="cls-5" d="M151.34,90.61c-8-.88-8.4-8.64-8.4-8.64-2.75,2.34-1.33-4-1.33-4h9.73v12.6"/><path class="cls-14" d="M151.4,78a20.33,20.33,0,0,1-3.18,1.62,8.49,8.49,0,0,1-3.44.18,5.05,5.05,0,0,1-.94,1.4c-.41.27-.45-.18-.63-1.49A2.34,2.34,0,0,0,141.72,78c-.18-9.63,9.62-9.5,9.62-9.5Z"/><path class="cls-4" d="M161.79,127.12a1.33,1.33,0,1,0,1.33,1.33A1.34,1.34,0,0,0,161.79,127.12Zm-4.14,0a1.33,1.33,0,1,0,1.33,1.33A1.34,1.34,0,0,0,157.65,127.12Zm-4.05,0a1.33,1.33,0,1,0,1.33,1.33A1.34,1.34,0,0,0,153.6,127.12Zm-.16-9.46a1.33,1.33,0,1,0,1.33,1.33A1.33,1.33,0,0,0,153.44,117.66Zm4.05,0a1.33,1.33,0,1,0,1.33,1.33A1.34,1.34,0,0,0,157.49,117.66Zm4.14,0A1.33,1.33,0,1,0,163,119,1.34,1.34,0,0,0,161.63,117.66Z"/><path class="cls-4" d="M186.54,50V158.57a8.58,8.58,0,0,1-8.55,8.55H151.56v-3.77a5.1,5.1,0,0,0,0-10v-2.44H178a3,3,0,0,0,3-3V57.41a3,3,0,0,0-3-3H151.56V50h13.62a2.1,2.1,0,0,0,0-4.2H151.56V41.48H178A8.58,8.58,0,0,1,186.54,50Z"/><path class="cls-4" d="M155.65,158.36a5.1,5.1,0,0,1-4.09,5v-10A5.11,5.11,0,0,1,155.65,158.36Z"/><path class="cls-4" d="M154.77,119a1.33,1.33,0,1,1-1.33-1.33A1.32,1.32,0,0,1,154.77,119Z"/><path class="cls-4" d="M158.82,119a1.33,1.33,0,1,1-1.33-1.33A1.32,1.32,0,0,1,158.82,119Z"/><path class="cls-4" d="M163,119a1.33,1.33,0,1,1-1.33-1.33A1.32,1.32,0,0,1,163,119Z"/><path class="cls-4" d="M154.93,128.45a1.33,1.33,0,1,1-1.33-1.33A1.34,1.34,0,0,1,154.93,128.45Z"/><path class="cls-4" d="M159,128.45a1.33,1.33,0,1,1-1.33-1.33A1.34,1.34,0,0,1,159,128.45Z"/><path class="cls-4" d="M163.12,128.45a1.33,1.33,0,1,1-1.33-1.33A1.34,1.34,0,0,1,163.12,128.45Z"/><path class="cls-4" d="M167.28,47.9a2.12,2.12,0,0,1-2.1,2.1H151.56V45.8h13.62A2.1,2.1,0,0,1,167.28,47.9Z"/><path class="cls-4" d="M178,54.44H151.56v8.85a22.84,22.84,0,0,1,0,45.64v6.17h15v7h-15V125h15v6.48h-15v3.3h7.65a3.75,3.75,0,0,1,0,7.5h-7.65v8.64H178a3,3,0,0,0,3-3V57.41A3,3,0,0,0,178,54.44Zm-3.69,77h-6.93V125h6.93Zm0-9.09h-6.57V115.1h6.57Z"/><path class="cls-4" d="M151.56,115.1v7h15v-7Zm1.88,5.22a1.33,1.33,0,1,1,1.33-1.33A1.32,1.32,0,0,1,153.44,120.32Zm4.05,0a1.33,1.33,0,1,1,1.33-1.33A1.33,1.33,0,0,1,157.49,120.32Zm4.14,0A1.33,1.33,0,1,1,163,119,1.33,1.33,0,0,1,161.63,120.32Z"/><path class="cls-4" d="M154.77,119a1.33,1.33,0,1,1-1.33-1.33A1.32,1.32,0,0,1,154.77,119Z"/><path class="cls-4" d="M158.82,119a1.33,1.33,0,1,1-1.33-1.33A1.32,1.32,0,0,1,158.82,119Z"/><path class="cls-4" d="M163,119a1.33,1.33,0,1,1-1.33-1.33A1.32,1.32,0,0,1,163,119Z"/><path class="cls-4" d="M151.56,125v6.48h15V125Zm2,4.78a1.33,1.33,0,1,1,1.33-1.33A1.34,1.34,0,0,1,153.6,129.78Zm4.05,0a1.33,1.33,0,1,1,1.33-1.33A1.34,1.34,0,0,1,157.65,129.78Zm4.14,0a1.33,1.33,0,1,1,1.33-1.33A1.34,1.34,0,0,1,161.79,129.78Z"/><path class="cls-4" d="M154.93,128.45a1.33,1.33,0,1,1-1.33-1.33A1.34,1.34,0,0,1,154.93,128.45Z"/><path class="cls-4" d="M159,128.45a1.33,1.33,0,1,1-1.33-1.33A1.34,1.34,0,0,1,159,128.45Z"/><path class="cls-4" d="M163.12,128.45a1.33,1.33,0,1,1-1.33-1.33A1.34,1.34,0,0,1,163.12,128.45Z"/><rect class="cls-4" x="167.73" y="115.1" width="6.57" height="7.29"/><rect class="cls-4" x="167.37" y="125" width="6.93" height="6.48"/><path class="cls-4" d="M163,138.53a3.76,3.76,0,0,1-3.75,3.75h-7.65v-2.52h8.1a1.08,1.08,0,1,0,0-2.16h-8.1v-2.82h7.65A3.76,3.76,0,0,1,163,138.53Z"/><path class="cls-4" d="M160.74,138.68a1.09,1.09,0,0,1-1.08,1.08h-8.1V137.6h8.1A1.09,1.09,0,0,1,160.74,138.68Z"/><path class="cls-4" d="M154.77,119a1.33,1.33,0,1,1-1.33-1.33A1.32,1.32,0,0,1,154.77,119Z"/><path class="cls-4" d="M158.82,119a1.33,1.33,0,1,1-1.33-1.33A1.32,1.32,0,0,1,158.82,119Z"/><path class="cls-4" d="M163,119a1.33,1.33,0,1,1-1.33-1.33A1.32,1.32,0,0,1,163,119Z"/><path class="cls-4" d="M154.93,128.45a1.33,1.33,0,1,1-1.33-1.33A1.34,1.34,0,0,1,154.93,128.45Z"/><path class="cls-4" d="M159,128.45a1.33,1.33,0,1,1-1.33-1.33A1.34,1.34,0,0,1,159,128.45Z"/><path class="cls-4" d="M163.12,128.45a1.33,1.33,0,1,1-1.33-1.33A1.34,1.34,0,0,1,163.12,128.45Z"/><path class="cls-15" d="M151.87,78.74l3.58-2.9s1.18,4.23,1.72,4.77,2.16-2,2.16-2c.27-5.94-4.5-7-4.5-7-.27-1.62-3.27-2.52-3.27-2.52"/><path class="cls-15" d="M151.56,90.78s5.52-1.44,7-6.93c0,0-1.12-2.92-.59-3.48s1.58-2.64,2-1.65a3.72,3.72,0,0,1-1.44,5.13"/><path class="cls-15" d="M153.61,90.42v4l-2.05,2.16V91.68S151.12,90.6,153.61,90.42Z"/><path class="cls-15" d="M163.62,104.85s-3.23-9.93-10-10.47l-2.05,2.16v12.39S158.55,108.75,163.62,104.85Z"/><rect class="cls-15" x="186.54" y="57.39" width="1.32" height="11.7" rx="0.66"/><rect class="cls-15" x="186.54" y="72.15" width="1.32" height="12.47" rx="0.66"/><path class="cls-4" d="M173.4,86.11a22.84,22.84,0,0,1-21.84,22.82V63.29A22.84,22.84,0,0,1,173.4,86.11Z"/><text class="cls-16" transform="translate(122.25 180.75)"><tspan class="cls-17">P</tspan><tspan x="5.26" y="0">roduct Design</tspan></text></g></svg>