<svg xmlns="http://www.w3.org/2000/svg" viewBox="0 0 312 216"><defs><style>.cls-1{fill:#f2f2f2;}.cls-2{fill:#1565c0;}.cls-3{fill:#85cbf8;}.cls-4{fill:#42a5f5;}.cls-5{fill:#39cefd;}.cls-6{fill:#16b9fd;}.cls-7{fill:#03569b;}</style></defs><title>iconos</title><g id="dart"><path class="cls-1" d="M78.25,189.29a10.76,10.76,0,0,1-5.39-1.45L14.53,154.17a10.83,10.83,0,0,1-5.39-9.35V77.47a10.82,10.82,0,0,1,5.39-9.35L72.86,34.45a10.76,10.76,0,0,1,10.79,0L142,68.12a10.82,10.82,0,0,1,5.39,9.35v67.35a10.83,10.83,0,0,1-5.39,9.35L83.65,187.84A10.76,10.76,0,0,1,78.25,189.29Z"/><path class="cls-1" d="M78.25,33.5a10.32,10.32,0,0,1,5.15,1.38l58.33,33.68a10.31,10.31,0,0,1,5.14,8.91v67.35a10.32,10.32,0,0,1-5.14,8.91L83.4,187.41a10.28,10.28,0,0,1-10.29,0L14.78,153.73a10.32,10.32,0,0,1-5.14-8.91V77.47a10.31,10.31,0,0,1,5.14-8.91L73.11,34.88a10.31,10.31,0,0,1,5.14-1.38m0-1A11.36,11.36,0,0,0,72.61,34L14.28,67.69a11.29,11.29,0,0,0-5.64,9.78v67.35a11.3,11.3,0,0,0,5.64,9.78l58.33,33.67a11.24,11.24,0,0,0,11.29,0l58.33-33.67a11.3,11.3,0,0,0,5.64-9.78V77.47a11.29,11.29,0,0,0-5.64-9.78L83.9,34a11.39,11.39,0,0,0-5.65-1.51Z"/><path class="cls-2" d="M42.76,74.34,27.7,107s-4.92,6.84,2.16,14.34S44.44,136,44.44,136Z"/><polygon class="cls-3" points="51.04 142.38 67.39 158.61 110.59 158.61 110.59 142.38 51.04 142.38"/><path class="cls-4" d="M42.76,74.34l30.12-15.9s10.44-7.38,17.91,1.62L108.61,78Z"/><path class="cls-4" d="M42.76,74.34s.48,40.92.06,54.54c-.12,4-1,5.4,5.16,10.44L51,142.38h59.55Z"/><polygon class="cls-2" points="42.76 74.34 110.59 142.38 129.67 142.38 129.67 98.58 108.61 77.97 42.76 74.34"/></g><g id="flutter"><path class="cls-1" d="M231.37,188.5a10.89,10.89,0,0,1-5.4-1.44l-58.32-33.68a10.82,10.82,0,0,1-5.4-9.35V76.69a10.82,10.82,0,0,1,5.4-9.35L226,33.66a10.83,10.83,0,0,1,10.79,0l58.33,33.68a10.82,10.82,0,0,1,5.4,9.35V144a10.82,10.82,0,0,1-5.4,9.35l-58.33,33.68A10.82,10.82,0,0,1,231.37,188.5Z"/><path class="cls-1" d="M231.37,32.72a10.21,10.21,0,0,1,5.14,1.38l58.33,33.67A10.34,10.34,0,0,1,300,76.69V144a10.34,10.34,0,0,1-5.15,8.92l-58.33,33.67a10.28,10.28,0,0,1-10.29,0L167.9,153a10.31,10.31,0,0,1-5.15-8.92V76.69a10.31,10.31,0,0,1,5.15-8.92L226.22,34.1a10.22,10.22,0,0,1,5.15-1.38m0-1a11.29,11.29,0,0,0-5.65,1.51L167.4,66.91a11.27,11.27,0,0,0-5.65,9.78V144a11.27,11.27,0,0,0,5.65,9.78l58.32,33.68a11.31,11.31,0,0,0,11.29,0l58.33-33.68A11.29,11.29,0,0,0,301,144V76.69a11.29,11.29,0,0,0-5.65-9.78L237,33.23a11.23,11.23,0,0,0-5.64-1.51Z"/><polygon class="cls-5" points="189.61 108.68 204.28 123.71 266.65 60.71 237.58 60.71 189.61 108.68"/><polygon class="cls-6" points="211.66 130.82 226.87 116.33 241.45 131.36 226.56 145.85 211.66 130.82"/><polygon class="cls-5" points="237.67 105.17 226.87 116.33 241.45 131.36 267.1 105.17 237.67 105.17"/><polygon class="cls-7" points="237.4 156.83 266.65 156.83 241.45 131.36 226.56 145.85 237.4 156.83"/></g></svg>