<svg xmlns="http://www.w3.org/2000/svg" viewBox="0 0 312 216"><defs><style>.cls-1{fill:#80c464;}.cls-2{fill:#412f1f;}.cls-3{fill:#509546;}.cls-4{fill:#4b9143;}.cls-5{fill:#529849;}.cls-6{fill:#4e9245;}.cls-7{fill:#519647;}.cls-8{fill:#65ad54;}.cls-9{fill:#53a64a;}.cls-10{fill:#6cb059;}.cls-11{fill:#57a74b;}.cls-12{fill:#5ba94e;}.cls-13{fill:#60ab51;}.cls-14{fill:#68af56;}.cls-15{fill:#549a4a;}.cls-16{fill:#498e42;}.cls-17{fill:#559b4b;}.cls-18{fill:#5daa4f;}.cls-19{fill:#50a447;}.cls-20{fill:#7eba6b;}.cls-21{fill:#76b663;}.cls-22{fill:#70b35e;}.cls-23{fill:#79b866;}.cls-24{fill:#74b461;}.cls-25{fill:#579d4c;}.cls-26{fill:#83bd71;}.cls-27{fill:#bebba0;}.cls-28{fill:#88c077;}.cls-29{fill:#a8a886;}.cls-30{fill:#d5d2c0;}.cls-31{fill:#87bf76;}</style></defs><title>iconos</title><g id="mongo"><path class="cls-1" d="M161.8,61.1c13.5.24,26.52,1.19,39,5.91A70.4,70.4,0,0,1,209,71c3.77,2,5.48,5.41,6.63,9.26a75.79,75.79,0,0,1,2.69,22.37c-.08,13.91-2.21,27.44-8.92,39.77-10.4,19.09-26,32.75-45.57,41.92a3.32,3.32,0,0,1-3.05.16c-22-10.41-39.15-25.81-48.85-48.5-4.88-11.41-6.21-23.58-6-35.94a72,72,0,0,1,3.08-21,14.1,14.1,0,0,1,6.79-8.36c7.35-4.17,15.33-6.37,23.56-7.79A152.17,152.17,0,0,1,161.8,61.1Z"/><path class="cls-2" d="M162.29,70c11,.07,21.86.93,32.42,4.25,2.18.69,4.21,1.78,6.36,2.46,5.25,1.65,6.47,5.93,7.23,10.53,2.63,15.92,1.44,31.49-4.62,46.52-4,9.88-10.61,18-18.21,25.29a90.55,90.55,0,0,1-21.87,15.51,2.47,2.47,0,0,1-2.56.2c-17-8.86-30.6-21.24-39.29-38.51-4.21-8.36-5.84-17.45-6.69-26.73a88,88,0,0,1,1.31-24c.77-4.16,2.62-7,6.71-8.79a78.57,78.57,0,0,1,20.28-5.51A128.81,128.81,0,0,1,162.29,70Z"/><path class="cls-3" d="M182.24,116.22a31.64,31.64,0,0,1,0,9.42,3.65,3.65,0,0,1-2.62,1.26c-4.24.5-8.39,1.58-12.65,1.95-1.69.14-3.11.48-3,2.69,0,.54.12,1.61-1.11,1.27-.79-1.47-.41-3.05-.45-4.59,0-2-.09-3.92,0-5.87a5.87,5.87,0,0,1,.33-2.69c.93-1.3,2.41-1.46,3.79-1.7q6.72-1.15,13.49-2.13A2.49,2.49,0,0,1,182.24,116.22Z"/><path class="cls-4" d="M180.56,133.77A27.66,27.66,0,0,1,175.87,144a2.58,2.58,0,0,1-2,1.13c-3,.46-6,1.07-9.05,1.52a3.22,3.22,0,0,1-2.27-.35,1.7,1.7,0,0,1-.42-.64,28.68,28.68,0,0,1-.2-5.4,10.21,10.21,0,0,1,.93-4.07,4.3,4.3,0,0,1,2.54-.93c4.2-.52,8.36-1.26,12.53-2A2.77,2.77,0,0,1,180.56,133.77Z"/><path class="cls-5" d="M177.12,99.23a29.57,29.57,0,0,1,3.46,9.25c-.05,1.28-1.12,1.3-2,1.52-4.62,1.2-9.43,1.28-14.07,2.34a1.69,1.69,0,0,1-1.76-.48,27.22,27.22,0,0,1-.12-9c.8-1.14,2.1-1,3.24-1.29C169.62,100.61,173.53,100.73,177.12,99.23Z"/><path class="cls-6" d="M180.56,133.77c-3.42-.06-6.66,1.09-10,1.43-2.51.26-5,.75-7.5,1.14a2.18,2.18,0,0,1-.58-1.72,2.09,2.09,0,0,1,.58-1.71c.45-.36.39-.87.41-1.36.14-3.07.22-3,3.39-3.36a143.08,143.08,0,0,0,15.41-2.55A24.38,24.38,0,0,1,180.56,133.77Z"/><path class="cls-7" d="M163,112c5.45-.89,10.9-1.77,16.34-2.7.43-.07.81-.5,1.21-.77a20.63,20.63,0,0,1,1.66,7.74c-6.43,1-13,1.39-19.2,3.43-.7-.62-.56-1.47-.64-2.25C162.51,115.57,161.93,113.66,163,112Z"/><path class="cls-8" d="M162.58,140.18c0,1.86,0,3.71,0,5.57-1.28.54-1.56-.55-2-1.28-1.08-1.79-1.38-3.87-2.05-5.81-2.35-6.76-4.52-13.59-6.8-20.38-1.56-4.63-3.2-9.25-4.81-13.87-.56-1.59-1.32-3.18-.59-4.93a3.93,3.93,0,0,1,.89-2.07c1.22.34,1.52,1.42,1.86,2.41,2.77,8.21,5.45,16.44,8.27,24.63C159.13,129.68,160.68,135,162.58,140.18Z"/><path class="cls-9" d="M142.05,120.07a26.17,26.17,0,0,1,.83-8.63,10.31,10.31,0,0,1,1.93,3.77c3.59,10.58,7,21.23,10.6,31.82a26,26,0,0,1,.78,2.88c.15.69.39,1.43-.47,1.88a20.83,20.83,0,0,1-4.73-5.51c-2.82-8.27-5.48-16.6-8.4-24.83A3.83,3.83,0,0,0,142.05,120.07Z"/><path class="cls-10" d="M163,132.91l0,1.72c-1.27,1.12-1.52-.09-1.82-.87-1-2.58-1.8-5.24-2.68-7.86-3.05-9.16-6.18-18.3-9.21-27.46-.45-1.35-1-2.7-.44-4.15a4.12,4.12,0,0,1,1.27-2.15c1.76,1.29,2,3.38,2.62,5.21,3,8.93,5.92,17.91,9,26.81.47,1.34.46,2.81,1.23,4Z"/><path class="cls-11" d="M155.72,151.79c.49-1.49-.32-2.79-.74-4.08-3.58-11-7.27-22-10.88-33-.37-1.12-1.46-2-1.22-3.31a8.17,8.17,0,0,1,.84-3.88c1.24,1,1.5,2.56,2,3.94,4.38,13.16,8.73,26.33,13.15,39.48.41,1.21,1.21,2.49.31,3.84A11.16,11.16,0,0,1,155.72,151.79Z"/><path class="cls-12" d="M159.14,154.82c-.34-3.44-1.91-6.51-2.93-9.74-2.07-6.63-4.31-13.2-6.51-19.78-2-5.92-4-11.82-6-17.74a6.11,6.11,0,0,1,.87-3.38c1.68,1.81,1.85,4.25,2.6,6.42,2.86,8.33,5.53,16.72,8.36,25.05,1.85,5.45,3.79,10.87,5.51,16.36a7.72,7.72,0,0,1,.36,2.74c-.14.56-.11,1.24-.94,1.29Z"/><path class="cls-13" d="M146.31,99.48c.12,3.2,1.67,6,2.59,9q2.47,8,5.34,15.81c1.78,4.89,3.14,9.93,5.08,14.77.72,1.81,1,3.82,1.92,5.58.34.62.58,1.13,1.33,1.16l0,.43a1.52,1.52,0,0,1,.33,1.28c-.37,1.17-.36,2.47-1.18,3.49-1.1,0-1.33-1-1.59-1.74-2.4-7.35-4.89-14.68-7.33-22s-4.86-14.55-7.23-21.84a5.33,5.33,0,0,1-.13-3.71A3.11,3.11,0,0,1,146.31,99.48Z"/><path class="cls-14" d="M148.85,94.29c1.41,6.39,3.93,12.42,5.91,18.63,1.71,5.39,3.56,10.73,5.31,16.11.56,1.75,1.5,3.37,1.77,5.23.1.7.66.61,1.16.37l0,1.71-.45,3.84c-2-1.8-2.06-4.42-2.86-6.71-2-5.81-3.9-11.68-5.85-17.53q-2.51-7.55-5-15.11a10.42,10.42,0,0,0-1.65-3.42A8.85,8.85,0,0,1,148.85,94.29Z"/><path class="cls-15" d="M177.12,99.23c-.08,1.17-1.1,1.27-1.85,1.4-4.08.69-8.17,1.28-12.25,1.9-1.06-1.87-.63-3.83-.31-5.78.78-1,2-.93,3-1.13,2.82-.53,5.7-.72,8.42-1.72C175.63,95.42,176.2,97.42,177.12,99.23Z"/><path class="cls-16" d="M162.56,147.51c0-.44,0-.89,0-1.33A85.13,85.13,0,0,0,175.87,144c-2.68,4.43-5.81,8.42-10.31,11.16-1.26.08-1.69-.91-2.26-1.74A8.26,8.26,0,0,1,162.56,147.51Z"/><path class="cls-17" d="M174.18,93.9a2.46,2.46,0,0,1-2,1.32c-3,.47-6.08.88-9.13,1.32a1.81,1.81,0,0,1-.81-1.1,7.63,7.63,0,0,1-.21-2.13c.12-1.34-.28-2.73.39-4,2.32-1.42,4.88-1.5,7.48-1.31A22.09,22.09,0,0,1,174.18,93.9Z"/><path class="cls-18" d="M145.47,101.65c0,2.84,1.29,5.35,2.1,8,2.2,7,4.59,14,6.91,20.94,2.08,6.24,4.15,12.48,6.26,18.7a9.06,9.06,0,0,0,.95,1.64c.77,1.5.69,2.84-.8,3.88.06-2.41-1-4.55-1.7-6.75-2.11-6.53-4.34-13-6.54-19.5-1.72-5.09-3.5-10.15-5.2-15.24-1-3-1.91-6.07-2.86-9.1A4.13,4.13,0,0,1,145.47,101.65Z"/><path class="cls-19" d="M142.05,120.07c2,1.8,2.1,4.45,2.95,6.72,2.06,5.52,3.78,11.18,5.67,16.77a6.31,6.31,0,0,1,.32,2.72,40,40,0,0,1-8.51-18.78A31.36,31.36,0,0,1,142.05,120.07Z"/><path class="cls-20" d="M154.86,85.78a8.78,8.78,0,0,1,2.1-2.2c1,.39,1.22,1.37,1.48,2.2,1.47,4.57,3.31,9,4.35,13.73,0,2.45,0,4.89,0,7.33-.74,1.19-1.24.38-1.63-.26a10.62,10.62,0,0,1-.85-2.41c-1.7-5.27-3.55-10.49-5.37-15.72C154.65,87.58,154.28,86.69,154.86,85.78Z"/><path class="cls-21" d="M162.59,107.24V99.1c-.36-1.15-.81-2.3,0-3.44a1,1,0,0,1,.41.88c0,2,0,4,0,6,0,3.14,0,6.28,0,9.42l0,5.56c-.43.34.12,1.34-.76,1.29-.62,0-.9-.65-1.11-1.19-1-2.72-1.93-5.5-2.86-8.27-1.83-5.46-3.62-10.93-5.49-16.38-.45-1.32-1.14-2.65-.45-4.11l1.29-1.66a97.5,97.5,0,0,1,4,11.21c1.33,4,2.7,8.09,4.07,12.13.36,1,.27,2.22.7,2.94C162.07,111.54,161.49,109.39,162.59,107.24Z"/><path class="cls-22" d="M163,128.2c-1.08-.12-1-1.11-1.2-1.78q-3.59-10.64-7.11-21.31c-1.09-3.28-2.17-6.58-3.29-9.85-.36-1.06-.85-2.08-1.28-3.12a4.93,4.93,0,0,1,1.33-2c1.75,2.58,2.17,5.66,3.2,8.51,2.74,7.54,5.1,15.22,7.73,22.8a1.32,1.32,0,0,0,.62.82Z"/><path class="cls-23" d="M162.59,107.24v7.11c-1.16-1.31-1.2-2.76-1.62-4-2.49-7.27-4.88-14.58-7.27-21.88a4.83,4.83,0,0,1-.08-1.27,3.26,3.26,0,0,1,1.24-1.41c.45,3.21,2.14,6,2.92,9.13.61,2.49,1.7,4.81,2.46,7.25C160.77,103.89,160.7,106.07,162.59,107.24Z"/><path class="cls-24" d="M163,122.22c-.86,1-.89,0-1.05-.46-1.72-5.11-3.4-10.23-5.13-15.34s-3.44-10-5.15-15.08a7.43,7.43,0,0,1-.22-1.25c.3-.41.59-.82.88-1.24.59,3.81,2.21,7.3,3.4,10.92,2,6.24,4.14,12.46,6.21,18.65.88.13.54-.82,1.06-.91,0,.72,0,1.43,0,2.14S163,121.36,163,122.22Z"/><path class="cls-25" d="M169.86,88c-2.34.87-4.85.71-7.24,1.29-.8-.72-.57-1.69-.62-2.59-.12-2,.23-4-.29-5.92a4.64,4.64,0,0,1,.48-3.08C163.92,81.73,167.12,84.69,169.86,88Z"/><path class="cls-26" d="M162.6,95.66c0,1.15,0,2.29,0,3.44-1.25-1.92-1.68-4.18-2.4-6.3-1.06-3.07-1.93-6.21-3.22-9.22A5.18,5.18,0,0,1,158.73,82c.8,1.07,1,2.42,1.54,3.6a4.06,4.06,0,0,1,.19.59c.65,2.48,1.61,4.87,2.12,7.39Z"/><path class="cls-27" d="M163.83,153.49a4.51,4.51,0,0,0,1.73,1.71c-1.89,3.07-1.09,6.51-1.33,9.8-1.67-.87-.52-2.17-.6-3.47-.36,1.76-.41,3.49-1.52,4.86-.73-1.81-.13-3.72-.44-5.56-.48-2.39.33-4.54,1.23-6.67C163.06,153.78,163.3,153.41,163.83,153.49Z"/><path class="cls-28" d="M162.19,77.68l0,3c.44,2,.1,4,.19,6.08,0,.59.18,1.36-.75,1.47s-1-.63-1.26-1.18c-.19-.37,0-.85-.33-1.2h0c-.08-1.48-1.47-2.69-.87-4.31,1.1-1.29,2.37-2.47,2.72-4.24,0,0,.15,0,.17,0S162.14,77.55,162.19,77.68Z"/><path class="cls-29" d="M163.83,153.49a20.68,20.68,0,0,0-2.16,7.34c-.39-1.6-.79-3.2-1.19-4.79.45-.32.4-.81.41-1.27a9.63,9.63,0,0,0,.8-3.88,6.76,6.76,0,0,1,.87-3.38C162.42,149.62,163.25,151.53,163.83,153.49Z"/><path class="cls-30" d="M162.11,166.39c0-1.87.9-3.5,1.49-5.51.57,1.54-.17,3,.63,4.12v2.07A3,3,0,0,1,162.11,166.39Z"/><path class="cls-31" d="M159.15,81.53c0,1.5,1.08,2.77.87,4.31A6.86,6.86,0,0,1,158.73,82Z"/><path class="cls-31" d="M160,85.84c.75.5.41,2.25,1.56,2s.48-1.73.55-2.64c.11-1.48,0-3,0-4.48.91,2.83.15,5.74.45,8.6,0,1.42,0,2.85,0,4.27A22.36,22.36,0,0,1,160,85.84Z"/></g></svg>