<svg xmlns="http://www.w3.org/2000/svg" viewBox="0 0 312 216"><defs><style>.cls-1{fill:#f2f2f2;}.cls-2{fill:#aaa;}.cls-3{fill:#fff;}.cls-4{fill:#4c4c4c;}</style></defs><title>iconos</title><g id="sql"><path class="cls-1" d="M156,188.38a10.79,10.79,0,0,1-5.4-1.45l-47.36-27.34a10.84,10.84,0,0,1-5.39-9.35V95.56a10.83,10.83,0,0,1,5.39-9.35L150.6,58.87a10.78,10.78,0,0,1,10.8,0l47.36,27.34a10.83,10.83,0,0,1,5.39,9.35v54.68a10.84,10.84,0,0,1-5.39,9.35L161.4,186.93A10.79,10.79,0,0,1,156,188.38Z"/><path class="cls-2" d="M156,57.92a10.38,10.38,0,0,1,5.15,1.38l47.36,27.34a10.33,10.33,0,0,1,5.14,8.92v54.68a10.31,10.31,0,0,1-5.14,8.91L161.15,186.5a10.3,10.3,0,0,1-10.3,0l-47.36-27.35a10.31,10.31,0,0,1-5.14-8.91V95.56a10.33,10.33,0,0,1,5.14-8.92L150.85,59.3A10.38,10.38,0,0,1,156,57.92m0-1a11.29,11.29,0,0,0-5.65,1.51L103,85.78a11.28,11.28,0,0,0-5.64,9.78v54.68A11.29,11.29,0,0,0,103,160l47.36,27.34a11.26,11.26,0,0,0,11.3,0L209,160a11.29,11.29,0,0,0,5.64-9.78V95.56A11.28,11.28,0,0,0,209,85.78L161.65,58.43A11.29,11.29,0,0,0,156,56.92Z"/><path class="cls-3" d="M174.9,93.48V90.05c0-2.83-.34-3.25-3.1-3.89a68.09,68.09,0,0,0-13.72-1.6,71.35,71.35,0,0,0-13.92,1.06,29.85,29.85,0,0,0-4.53,1.26A1.92,1.92,0,0,0,138.36,89c0,2.77.13,5.55,0,8.31a3.3,3.3,0,0,0,2.32,3.52,12.75,12.75,0,0,0,1.22.46A43.91,43.91,0,0,0,154.3,103a61.36,61.36,0,0,0,15-1.15,12,12,0,0,0,4.63-1.84,2.23,2.23,0,0,0,1-1.93C174.88,96.54,174.9,95,174.9,93.48Zm-.48,23.63a10,10,0,0,1-1.19.84,24.28,24.28,0,0,1-6.43,1.78,68.93,68.93,0,0,1-21.12-.14,15.77,15.77,0,0,1-6.06-2c-.54-.34-.8-.17-1,.26a1.9,1.9,0,0,0-.21.84c0,3.21,0,6.42,0,9.63a1.72,1.72,0,0,0,.82,1.61,18.34,18.34,0,0,0,3.05,1.5,36.66,36.66,0,0,0,10,1.57,74,74,0,0,0,14.19-.53,22.89,22.89,0,0,0,6.31-1.67c1.07-.5,2.17-1.05,2.18-2.46,0-3.24,0-6.47,0-9.71A7,7,0,0,0,174.42,117.11Zm.14-14.93c-1.29.54-2.39,1.1-3.54,1.46a42.09,42.09,0,0,1-11.43,1.63,67.12,67.12,0,0,1-12.51-.57c-2.83-.44-5.67-.89-8.29-2.71a7.73,7.73,0,0,0-.4,1.67c0,3,0,5.94,0,8.91a2.54,2.54,0,0,0,1.42,2.49,11.64,11.64,0,0,0,1.38.66,37.41,37.41,0,0,0,12.23,2c3,.1,6,0,9-.14,1.9-.09,3.79-.41,5.63-.62a6.52,6.52,0,0,1-.81-1.37,2.08,2.08,0,0,1,.54-2.34,1.88,1.88,0,0,1,2.12-.24c.44.21.83.59.53,1.1a5.39,5.39,0,0,1-1.13,1.21.62.62,0,0,1-.63,0,.87.87,0,0,1-.11-.65c0-.18.18-.34.27-.51l-.29-.12c-.11.38-.36.79-.28,1.11a1.25,1.25,0,0,0,.82.65c.5.14,1.07,0,1.58.19.81.22,1,.13.88-.68a2.13,2.13,0,0,1,.85-2.19,1.91,1.91,0,0,1,2.2.08,1.81,1.81,0,0,0,.37.14c0-3.51,0-6.93,0-10.36A1.88,1.88,0,0,0,174.56,102.18Z"/><path class="cls-4" d="M174.9,93.48c0,1.53,0,3.06,0,4.59a2.23,2.23,0,0,1-1,1.93,12,12,0,0,1-4.63,1.84,61.36,61.36,0,0,1-15,1.15,43.91,43.91,0,0,1-12.43-1.74,12.75,12.75,0,0,1-1.22-.46,3.3,3.3,0,0,1-2.32-3.52c.16-2.76.06-5.54,0-8.31a1.92,1.92,0,0,1,1.27-2.08,29.85,29.85,0,0,1,4.53-1.26,71.35,71.35,0,0,1,13.92-1.06,68.09,68.09,0,0,1,13.72,1.6c2.76.64,3.1,1.06,3.1,3.89Zm-1.75-6.26a14.31,14.31,0,0,0-2.22-.67c-2.5-.36-5-.74-7.51-.92a88.16,88.16,0,0,0-19.48.6,16.39,16.39,0,0,0-3.42,1c-.8.29-.79.92,0,1.29a8.89,8.89,0,0,0,2.13.71,59.8,59.8,0,0,0,10.93,1.06,91.18,91.18,0,0,0,14.4-.61,39.44,39.44,0,0,0,4.53-1A.9.9,0,0,0,173.15,87.22Zm-32.54,8c.3-.41.63-.67.61-.9s-.38-.45-.6-.67c-.22.23-.58.43-.64.7S140.3,94.86,140.61,95.26Z"/><path class="cls-4" d="M174.73,117.11a5.23,5.23,0,0,1,.15,1.56c0,3.24.1,6.51,0,9.71,0,1.41-1.11,2-2.18,2.46a22.89,22.89,0,0,1-6.31,1.67,74,74,0,0,1-14.19.53,36.66,36.66,0,0,1-10-1.57,18.34,18.34,0,0,1-3.05-1.5,1.72,1.72,0,0,1-.82-1.61c0-3.21,0-6.42,0-9.63a1.9,1.9,0,0,1,.21-.84c.23-.43.49-.6,1-.26a15.77,15.77,0,0,0,6.06,2,68.93,68.93,0,0,0,21.12.14,24.28,24.28,0,0,0,6.43-1.78A9.51,9.51,0,0,0,174.73,117.11Zm-32.63,7.52c-.42-.31-.71-.67-.91-.63s-.47.42-.69.66c.23.2.44.55.69.57S141.68,124.92,142.1,124.63Z"/><path class="cls-4" d="M174.56,102.18a1.88,1.88,0,0,1,.3.77c0,3.43.11,12.1,0,12a39.51,39.51,0,0,1-3.87,1.37c-.32.09-2.18.39-3,.59-.32.08-2-1.9-1.85-2.27.09,0,2-2.31,2.08-2.27-.09.17,2.32.09,2.3.27s.65,1,.78,1.11a12.62,12.62,0,0,1-2.06,1.52,5.39,5.39,0,0,0,1.13-1.21c.3-.51-.09-.89-.53-1.1a1.88,1.88,0,0,0-2.12.24,2.08,2.08,0,0,0-.54,2.34A6.52,6.52,0,0,0,168,117c-1.84.21-3.73.53-5.63.62-3,.13-6,.24-9,.14a37.41,37.41,0,0,1-12.23-2,11.64,11.64,0,0,1-1.38-.66,2.54,2.54,0,0,1-1.42-2.49c.06-3,0-5.94,0-8.91a7.73,7.73,0,0,1,.4-1.67c2.62,1.82,5.46,2.27,8.29,2.71a67.12,67.12,0,0,0,12.51.57A42.09,42.09,0,0,0,171,103.64C172.17,103.28,173.27,102.72,174.56,102.18Zm-16,12.45c.19,0,1.25-1.9,1.39-2s1.27,0,1.46-.23c1.13-.29.07.47-.17.45-.79-.07-1.39.51-1.65,1.52a1.84,1.84,0,0,0,.79,2.1,1.65,1.65,0,0,0,2.78-.81,24.59,24.59,0,0,0,.1-4.12.61.61,0,0,0-.44-.38c-.16,0-.63-.62-.55-.78.54-1.17,1.37.56,1.37.78,0,.94.05,2.78.16,3.72a3.33,3.33,0,0,1-2.88,2.52c-.45,0-2.16-1.1-2-1.58C158.92,115.59,158.48,114.86,158.55,114.63ZM141.22,109c-.33.39-.71.66-.67.84s.39.49.61.72c.22-.21.59-.4.63-.64S141.5,109.4,141.22,109Z"/><path class="cls-4" d="M166.94,165.1,165,168.49c-1.44-1-2.82-1.88-4.23-2.76a1.64,1.64,0,0,0-1.06-.22c-2.55.31-4.86-.12-6.61-2.16a7.71,7.71,0,0,1-1.66-4.88c-.09-1.77,0-3.55,0-5.33,0-.12,0-5,0-5.27,0-1.92-.07-3.85,0-5.77a7.23,7.23,0,0,1,2-5.15,5.82,5.82,0,0,1,3.36-1.62c2.59-.34,5.11-.29,7.18,1.66a6.53,6.53,0,0,1,1.88,3.93,15.37,15.37,0,0,1,.15,2.25c0,4.57,0,9.14,0,13.72a10.66,10.66,0,0,1-1.54,6.31c0,.06,0,.14-.06.29Zm-6.77-14.8c0-2.48,0-5,0-7.44a6.26,6.26,0,0,0-.22-1.43,1.14,1.14,0,0,0-1.17-.91,1.25,1.25,0,0,0-1.34.9,5.94,5.94,0,0,0-.27,1.57c0,1.58,0,3.16,0,4.74,0,.44,0,1.64,0,2.66s0,2.45,0,2.89c0,1.41,0,2.82,0,4.23a8.55,8.55,0,0,0,.32,1.93,1.17,1.17,0,0,0,1.24.83,1.07,1.07,0,0,0,1.17-.88,9.32,9.32,0,0,0,.27-1.72C160.18,155.21,160.17,152.76,160.17,150.3Z"/><path class="cls-4" d="M147.68,150.7a8.48,8.48,0,0,1,1.9,5.12,16.26,16.26,0,0,1-.66,5.76,5.36,5.36,0,0,1-5.25,3.95,18.18,18.18,0,0,1-4-.3,5.32,5.32,0,0,1-4.16-4.14,21.19,21.19,0,0,1-.46-6.3.67.67,0,0,1,.47-.45c1.58,0,3.17,0,4.75,0,.45,0,.49.28.49.63,0,1.07,0,2.14,0,3.21a4.47,4.47,0,0,0,.23,1.21,1.3,1.3,0,0,0,1.43.9,1.24,1.24,0,0,0,1.28-1.07,6.34,6.34,0,0,0-1.2-5.23,13,13,0,0,0-1.31-1.36c-.57-.51-1.6-1.6-2-2-3.88-3.74-5.16-7.28-3.28-12a5.25,5.25,0,0,1,5-3.34,17,17,0,0,1,3.83.26,5.06,5.06,0,0,1,4.08,3.84,31.86,31.86,0,0,1,.63,3.93c.07.43-.13.61-.58.6-1.58,0-3.16,0-4.74,0-.46,0-.59-.19-.58-.61a10.14,10.14,0,0,0,0-1.46,1.42,1.42,0,0,0-2.84.11,3.7,3.7,0,0,0,1.26,2.77c1.37,1.35,2.75,2.69,4.15,4C146.49,149.12,147.23,150.17,147.68,150.7Z"/><path class="cls-4" d="M181.12,160.46c0,1.53,0,2.94,0,4.35,0,.4-.18.55-.58.55q-5.45,0-10.87,0c-.4,0-.6-.14-.59-.54,0-.17,0-.34,0-.51V136.37c0-1,0-1,1-1,1.37,0,2.73,0,4.09,0,.64,0,.83.19.83.83q0,11.52,0,23.05c0,1.19,0,1.19,1.2,1.19Z"/><path class="cls-3" d="M173.15,87.22a.9.9,0,0,1-.66,1.4,39.44,39.44,0,0,1-4.53,1,91.18,91.18,0,0,1-14.4.61,59.8,59.8,0,0,1-10.93-1.06,8.89,8.89,0,0,1-2.13-.71c-.77-.37-.78-1,0-1.29a16.39,16.39,0,0,1,3.42-1,88.16,88.16,0,0,1,19.48-.6c2.51.18,5,.56,7.51.92A14.31,14.31,0,0,1,173.15,87.22Z"/><path class="cls-3" d="M140.61,95.26c-.31-.4-.66-.67-.63-.87s.42-.47.64-.7c.22.22.58.43.6.67S140.91,94.85,140.61,95.26Z"/><path class="cls-3" d="M142.1,124.63c-.42.29-.68.62-.91.6s-.46-.37-.69-.57c.22-.24.43-.61.69-.66S141.68,124.32,142.1,124.63Z"/><path class="cls-3" d="M141.22,109c.28.43.6.7.57.92s-.41.43-.63.64c-.22-.23-.56-.45-.61-.72S140.89,109.36,141.22,109Z"/></g></svg>