<svg width="25" height="25" viewBox="0 0 25 25" fill="none" xmlns="http://www.w3.org/2000/svg">
<path fill-rule="evenodd" clip-rule="evenodd" d="M3.06067e-07 2.06775C3.06067e-07 1.51935 0.217852 0.993411 0.60563 0.605633C0.993409 0.217854 1.51935 2.7566e-06 2.06775 2.7566e-06H22.68C22.9518 -0.000441114 23.221 0.0527235 23.4722 0.156453C23.7234 0.260182 23.9516 0.412439 24.1439 0.604506C24.3362 0.796573 24.4887 1.02468 24.5927 1.27576C24.6967 1.52685 24.7501 1.79598 24.75 2.06775V22.68C24.7503 22.9518 24.697 23.221 24.5931 23.4722C24.4893 23.7235 24.3369 23.9517 24.1448 24.144C23.9526 24.3362 23.7244 24.4887 23.4733 24.5927C23.2221 24.6967 22.9529 24.7502 22.6811 24.75H2.06775C1.79611 24.75 1.52714 24.6965 1.2762 24.5925C1.02525 24.4885 0.797255 24.3361 0.605232 24.144C0.413209 23.9518 0.260923 23.7238 0.157075 23.4728C0.0532274 23.2218 -0.000147483 22.9528 3.06067e-07 22.6811V2.06775ZM9.7965 9.4365H13.1479V11.1195C13.6316 10.152 14.8691 9.28125 16.7288 9.28125C20.2939 9.28125 21.1388 11.2084 21.1388 14.7443V21.294H17.5309V15.5498C17.5309 13.536 17.0471 12.3998 15.8186 12.3998C14.1143 12.3998 13.4055 13.6249 13.4055 15.5498V21.294H9.7965V9.4365ZM3.609 21.1399H7.218V9.28125H3.609V21.1388V21.1399ZM7.73438 5.4135C7.74118 5.72251 7.68619 6.02976 7.57264 6.31723C7.4591 6.6047 7.28927 6.86659 7.07314 7.08754C6.857 7.30849 6.59891 7.48403 6.31401 7.60389C6.02911 7.72374 5.72315 7.78547 5.41406 7.78547C5.10498 7.78547 4.79901 7.72374 4.51411 7.60389C4.22921 7.48403 3.97112 7.30849 3.75499 7.08754C3.53886 6.86659 3.36903 6.6047 3.25548 6.31723C3.14193 6.02976 3.08695 5.72251 3.09375 5.4135C3.10711 4.80696 3.35743 4.22977 3.79112 3.80552C4.22481 3.38128 4.80738 3.14372 5.41406 3.14372C6.02075 3.14372 6.60332 3.38128 7.037 3.80552C7.47069 4.22977 7.72102 4.80696 7.73438 5.4135Z" fill="#FAFAFA"/>
</svg>
