<svg xmlns="http://www.w3.org/2000/svg" viewBox="0 0 312 216"><defs><style>.cls-1{fill:#47b5ff;opacity:0.8;}.cls-2,.cls-3{fill:#256d85;}.cls-3{font-size:43.97px;font-family:Poppins-MediumItalic, Poppins;font-weight:500;font-style:italic;}</style></defs><title>logotipoEZ_logo</title><g id="logotipo"><rect class="cls-1" x="17.88" y="108" width="38.41" height="4.66" rx="0.37" transform="translate(74.17 220.66) rotate(-180)"/><path class="cls-2" d="M24.9,116H55.15a1.14,1.14,0,0,1,1.14,1.14v2.39a1.14,1.14,0,0,1-1.14,1.14H25.26a1.5,1.5,0,0,1-1.5-1.5v-2A1.14,1.14,0,0,1,24.9,116Z" transform="translate(80.05 236.73) rotate(180)"/><rect class="cls-1" x="31.37" y="124.15" width="52.57" height="4.66" rx="1.13" transform="translate(115.31 252.97) rotate(180)"/><rect class="cls-1" x="237.96" y="110.29" width="49.09" height="4.66" rx="0.37" transform="translate(525.01 225.24) rotate(-180)"/><rect class="cls-1" x="122.28" y="106.69" width="38.41" height="4.66" rx="0.37" transform="translate(282.97 218.04) rotate(-180)"/><path class="cls-2" d="M128.89,117H145a1.14,1.14,0,0,1,1.14,1.14v2.39a1.14,1.14,0,0,1-1.14,1.14H127.23a1.5,1.5,0,0,1-1.5-1.5v0a3.17,3.17,0,0,1,3.17-3.17Z" transform="translate(271.86 238.76) rotate(180)"/><rect class="cls-1" x="138.6" y="124.15" width="77.82" height="4.66" rx="1.13" transform="translate(355.02 252.97) rotate(180)"/><text class="cls-3" transform="translate(36.24 133.95)">EasyPeasy</text></g></svg>