<svg xmlns="http://www.w3.org/2000/svg" viewBox="0 0 312 216"><defs><style>.cls-1{fill:#47b5ff;opacity:0.8;}.cls-2{fill:#161d6f;}.cls-3{fill:#fafafa;}</style></defs><title>logotipoFooter</title><g id="logotipoFooter"><rect class="cls-1" x="21.42" y="100.22" width="38.41" height="4.66" rx="0.37" transform="translate(81.24 205.11) rotate(-180)"/><path class="cls-2" d="M28.43,108.79H56.94a1.14,1.14,0,0,1,1.14,1.14v1.55a1.14,1.14,0,0,1-1.14,1.14H28.79a1.5,1.5,0,0,1-1.5-1.5v-1.19a1.14,1.14,0,0,1,1.14-1.14Z" transform="translate(85.37 221.4) rotate(180)"/><rect class="cls-1" x="34.9" y="116.37" width="52.57" height="4.66" rx="1.13" transform="translate(122.38 237.41) rotate(180)"/><rect class="cls-1" x="240.87" y="102.51" width="49.72" height="4.66" rx="0.37" transform="translate(531.45 209.68) rotate(-180)"/><rect class="cls-1" x="125.82" y="98.91" width="38.41" height="4.66" rx="0.37" transform="translate(290.04 202.48) rotate(-180)"/><path class="cls-2" d="M132.43,109.27h16.1a1.14,1.14,0,0,1,1.14,1.14v2.39a1.14,1.14,0,0,1-1.14,1.14H130.76a1.5,1.5,0,0,1-1.5-1.5v0a3.17,3.17,0,0,1,3.17-3.17Z" transform="translate(278.93 223.2) rotate(180)"/><rect class="cls-1" x="142.13" y="116.37" width="77.82" height="4.66" rx="1.13" transform="translate(362.09 237.41) rotate(180)"/><path class="cls-3" d="M50.5,99.48l-1.62,9.28H59.43l-.66,3.87H48.22l-1.72,9.63H58.38l-.71,3.91H40.79l5.41-30.6H63.08l-.7,3.91Z"/><path class="cls-3" d="M67,107.48a14.29,14.29,0,0,1,4.9-4.37,12.67,12.67,0,0,1,6.07-1.56,9.38,9.38,0,0,1,4.79,1.12,7.83,7.83,0,0,1,2.91,2.79l.61-3.52h5.06L87,126.17H82l.66-3.61a12.9,12.9,0,0,1-4,2.86,12,12,0,0,1-5.21,1.15,9.45,9.45,0,0,1-4.86-1.24,8.58,8.58,0,0,1-3.34-3.49,10.86,10.86,0,0,1-1.21-5.21,13.67,13.67,0,0,1,.26-2.68A15.93,15.93,0,0,1,67,107.48Zm17.35,4.75a6.18,6.18,0,0,0-1.74-4.64,6,6,0,0,0-4.33-1.69,8.2,8.2,0,0,0-3.78.94,9.39,9.39,0,0,0-3.21,2.78,9.92,9.92,0,0,0-1.8,4.33,8.45,8.45,0,0,0-.18,1.8A6.4,6.4,0,0,0,71,120.48a5.89,5.89,0,0,0,4.33,1.73,8.1,8.1,0,0,0,3.78-1,9.37,9.37,0,0,0,3.21-2.84,10.28,10.28,0,0,0,1.8-4.38A8.45,8.45,0,0,0,84.32,112.23Z"/><path class="cls-3" d="M98,125.71a7.63,7.63,0,0,1-3.25-2.42,5.78,5.78,0,0,1-1.19-3.58,7.06,7.06,0,0,1,.09-1h4.88a3.13,3.13,0,0,0,1,2.77,4.75,4.75,0,0,0,3.34,1.1,7.18,7.18,0,0,0,3.48-.75,2.37,2.37,0,0,0,1.36-2.2,2.28,2.28,0,0,0-1.12-2A19.64,19.64,0,0,0,103,116a33.63,33.63,0,0,1-3.79-1.71,8,8,0,0,1-2.5-2.18,5.48,5.48,0,0,1-1.06-3.45A6,6,0,0,1,96.87,105a7.93,7.93,0,0,1,3.39-2.5,13,13,0,0,1,5-.9,11.47,11.47,0,0,1,4.55.85,7.36,7.36,0,0,1,3.12,2.42,6,6,0,0,1,1.12,3.59,7.13,7.13,0,0,1,0,.92h-4.75a3.08,3.08,0,0,0-1-2.77,4.79,4.79,0,0,0-3.32-1.06,5.42,5.42,0,0,0-3.06.79,2.59,2.59,0,0,0,0,4.34,19.37,19.37,0,0,0,3.65,1.78,29,29,0,0,1,3.65,1.67,8,8,0,0,1,2.41,2.11,5.23,5.23,0,0,1,1,3.3,5.84,5.84,0,0,1-1.29,3.76,8.17,8.17,0,0,1-3.59,2.46,14.69,14.69,0,0,1-5.18.86A11.86,11.86,0,0,1,98,125.71Z"/><path class="cls-3" d="M124.11,101.94l3.56,18.47L138,101.94h5.18l-21.1,35.62H116.9l7-11.79-5.36-23.83Z"/><path class="cls-3" d="M166,109.11a10.63,10.63,0,0,1-4.11,3.36,14.38,14.38,0,0,1-6.42,1.3h-5.54l-2.2,12.4h-5l5.41-30.56h10.55q4.62,0,7,2A6.72,6.72,0,0,1,168,103a12,12,0,0,1-.18,1.71A10.53,10.53,0,0,1,166,109.11Zm-5.32-.62a6,6,0,0,0,2.05-3.78,7.11,7.11,0,0,0,.13-1.27,3.58,3.58,0,0,0-1.21-2.88,5.54,5.54,0,0,0-3.67-1h-5.54l-1.81,10.34h5.55A6.85,6.85,0,0,0,160.67,108.49Z"/><path class="cls-3" d="M190.88,104.1a9,9,0,0,1,2.7,6.86,15.44,15.44,0,0,1-.22,2.41,19.48,19.48,0,0,1-.61,2.38H174.24a6.65,6.65,0,0,0-.05.92,5.48,5.48,0,0,0,1.61,4.14,5.84,5.84,0,0,0,4.2,1.53,7.07,7.07,0,0,0,6.29-3.38h5.4a13.82,13.82,0,0,1-4.92,5.47,13.36,13.36,0,0,1-7.52,2.14,11.4,11.4,0,0,1-5.32-1.19,8.54,8.54,0,0,1-3.56-3.41,10.29,10.29,0,0,1-1.28-5.21,15,15,0,0,1,.27-2.73,15.89,15.89,0,0,1,2.68-6.57,14,14,0,0,1,5-4.38,14.32,14.32,0,0,1,6.58-1.53A10.1,10.1,0,0,1,190.88,104.1Zm-2.44,6.9a4.87,4.87,0,0,0-1.6-3.83,6.14,6.14,0,0,0-4.16-1.4,7.59,7.59,0,0,0-4.84,1.71,8.7,8.7,0,0,0-2.94,4.66h13.45A11.15,11.15,0,0,0,188.44,111Z"/><path class="cls-3" d="M199.15,107.48a14.2,14.2,0,0,1,4.9-4.37,12.64,12.64,0,0,1,6.07-1.56,9.41,9.41,0,0,1,4.79,1.12,7.72,7.72,0,0,1,2.9,2.79l.62-3.52h5l-4.26,24.23h-5.06l.66-3.61a12.66,12.66,0,0,1-4,2.86,12,12,0,0,1-5.21,1.15,9.45,9.45,0,0,1-4.86-1.24,8.65,8.65,0,0,1-3.34-3.49,10.86,10.86,0,0,1-1.21-5.21,13.69,13.69,0,0,1,.27-2.68A15.8,15.8,0,0,1,199.15,107.48Zm17.34,4.75a6.22,6.22,0,0,0-1.73-4.64,6,6,0,0,0-4.34-1.69,8.2,8.2,0,0,0-3.78.94,9.39,9.39,0,0,0-3.21,2.78,9.92,9.92,0,0,0-1.8,4.33,8.45,8.45,0,0,0-.18,1.8,6.4,6.4,0,0,0,1.74,4.73,5.9,5.9,0,0,0,4.33,1.73,8.1,8.1,0,0,0,3.78-1,9.29,9.29,0,0,0,3.21-2.84,10.41,10.41,0,0,0,1.81-4.38A9.17,9.17,0,0,0,216.49,112.23Z"/><path class="cls-3" d="M230.17,125.71a7.73,7.73,0,0,1-3.26-2.42,5.77,5.77,0,0,1-1.18-3.58,8.66,8.66,0,0,1,.08-1h4.89a3.13,3.13,0,0,0,1,2.77,4.74,4.74,0,0,0,3.34,1.1,7.14,7.14,0,0,0,3.47-.75,2.37,2.37,0,0,0,1.36-2.2,2.28,2.28,0,0,0-1.12-2,19.32,19.32,0,0,0-3.58-1.67,34.2,34.2,0,0,1-3.78-1.71,8,8,0,0,1-2.51-2.18,5.53,5.53,0,0,1-1-3.45,6,6,0,0,1,1.21-3.72,7.84,7.84,0,0,1,3.38-2.5,13,13,0,0,1,5-.9,11.47,11.47,0,0,1,4.55.85,7.33,7.33,0,0,1,3.13,2.42,6.05,6.05,0,0,1,1.12,3.59,6.76,6.76,0,0,1-.05.92h-4.75a3.08,3.08,0,0,0-1-2.77,4.78,4.78,0,0,0-3.32-1.06,5.39,5.39,0,0,0-3.05.79,2.48,2.48,0,0,0-1.17,2.16,2.54,2.54,0,0,0,1.19,2.18,19.69,19.69,0,0,0,3.65,1.78,28.39,28.39,0,0,1,3.65,1.67,8,8,0,0,1,2.42,2.11,5.29,5.29,0,0,1,1,3.3,5.79,5.79,0,0,1-1.3,3.76,8.13,8.13,0,0,1-3.58,2.46,14.75,14.75,0,0,1-5.19.86A11.85,11.85,0,0,1,230.17,125.71Z"/><path class="cls-3" d="M256.29,101.94l3.56,18.47,10.33-18.47h5.19l-21.11,35.62h-5.19l7-11.79-5.37-23.83Z"/></g></svg>