<svg xmlns="http://www.w3.org/2000/svg" viewBox="0 0 16 16"><defs><style>.cls-1{fill:#fff;stroke-width:0.2px;}.cls-1,.cls-4{stroke:#256d85;stroke-linecap:round;stroke-linejoin:round;}.cls-2{fill:#47b5ff;opacity:0.8;}.cls-3{fill:#256d85;}.cls-4{fill:none;}</style></defs><title>iconoTab</title><g id="favicon"><path class="cls-1" d="M7.83,15.39,2,12a.68.68,0,0,1-.34-.59V4.6A.68.68,0,0,1,2,4L7.83.61a.69.69,0,0,1,.68,0L14.4,4a.68.68,0,0,1,.34.59v6.8a.68.68,0,0,1-.34.59l-5.89,3.4A.69.69,0,0,1,7.83,15.39Z"/><path class="cls-2" d="M4.55,6.07h7.67a.27.27,0,0,1,.27.27V6.8a.27.27,0,0,1-.27.27H4.91a.63.63,0,0,1-.63-.63v-.1a.27.27,0,0,1,.27-.27Z" transform="translate(16.77 13.13) rotate(180)"/><rect class="cls-3" x="5.79" y="7.57" width="6.93" height="1" rx="0.45" transform="translate(18.51 16.13) rotate(180)"/><rect class="cls-2" x="7.56" y="9.06" width="4.82" height="1" rx="0.45" transform="translate(19.94 19.13) rotate(-180)"/><path class="cls-3" d="M10.35,10.5H12a.16.16,0,0,1,.16.16v.68a.16.16,0,0,1-.16.16H9.78a.16.16,0,0,1-.16-.16v-.1A.73.73,0,0,1,10.35,10.5Z" transform="translate(21.82 21.99) rotate(180)"/><path class="cls-3" d="M12.62,8.13A7,7,0,0,0,11.38,5,3.71,3.71,0,0,0,8.84,3.33a3.36,3.36,0,0,0-2.64.91A4.78,4.78,0,0,0,4.81,6.88,6,6,0,0,0,4.89,10a5,5,0,0,0,1.68,2.49A3.2,3.2,0,0,0,9.45,13a4.82,4.82,0,0,0,2.64-2h0a0,0,0,0,1,.07,0,0,0,0,0,1,0,.06,4.81,4.81,0,0,1-2.54,2.46,3.83,3.83,0,0,1-3.49-.37A6.18,6.18,0,0,1,3.83,6.67,5.75,5.75,0,0,1,5.6,3.56,4,4,0,0,1,9,2.58a4.33,4.33,0,0,1,2.83,2.1,6.65,6.65,0,0,1,.91,3.45,0,0,0,0,1-.05,0,.07.07,0,0,1-.05,0Z"/><polygon class="cls-4" points="27.02 -38.29 -22.98 -38.29 -47.98 5.01 -22.98 48.32 27.02 48.32 52.02 5.01 27.02 -38.29"/></g></svg>